<svg xmlns="http://www.w3.org/2000/svg" width="13.624" height="13.623" viewBox="0 0 13.624 13.623">
    <path data-name="Unión 440" d="M-598.181 1136.457a6.824 6.824 0 0 1 0-9.638 6.824 6.824 0 0 1 9.638 0 6.822 6.822 0 0 1 0 9.638 6.793 6.793 0 0 1-4.819 1.993 6.8 6.8 0 0 1-4.819-1.993zm.918-.918a5.525 5.525 0 0 0 7.316.432l-7.748-7.748a5.525 5.525 0 0 0 .432 7.316zm8.235-.487a5.525 5.525 0 0 0-.433-7.315 5.525 5.525 0 0 0-7.316-.432z" transform="translate(600.174 -1124.826)" style="fill:#bcbcbc"/>
</svg>
